<?xml version="1.0" encoding="UTF-8"?>
<svg id="Calque_1" data-name="Calque 1" xmlns="http://www.w3.org/2000/svg" xmlns:xlink="http://www.w3.org/1999/xlink" viewBox="0 0 373.84 206">
  <defs>
    <style>
      .cls-1 {
        fill: url(#Dégradé_sans_nom_21);
      }

      .cls-2 {
        fill: #fff1dc;
        stroke: #000;
        stroke-miterlimit: 10;
        stroke-width: 5px;
      }
    </style>
    <linearGradient id="Dégradé_sans_nom_21" data-name="Dégradé sans nom 21" x1="12.04" y1="95.8" x2="373.84" y2="95.8" gradientUnits="userSpaceOnUse">
      <stop offset="0" stop-color="#90dbf4"/>
      <stop offset=".27" stop-color="#98f5e1"/>
      <stop offset=".52" stop-color="#ffe67d"/>
      <stop offset=".77" stop-color="#ffbc8f"/>
      <stop offset="1" stop-color="#f484c4"/>
    </linearGradient>
  </defs>
  <path class="cls-1" d="m367.64,93.2c-3.6,0-5.2,2-7.2,4.4-3,3.6-7.6,9.8-14.4,9.8-2.6,0-4.4-1.6-5.4-4.2,18.4-18.2,33.2-51.8,33.2-72s-8.4-29.2-20.6-29.2c-32.17,0-44.64,65.34-45.89,101.51-2.07,1.76-4.28,2.89-6.71,2.89-3.4,0-5-2.4-5-6.6,0-3.6,1.2-7,1.2-9.6,0-3.6-3-6-7.2-6-2.6,0-5.8,1-8.2,2.6-4-2.8-9.6-4.6-15.6-4.6-11.54,0-23.23,6.44-30.25,17.37-2.04-10.86-8.97-18.77-21.35-18.77s-20.4,7.2-25.8,15.2c.2-1.2.2-2.2.2-3,0-5.6-4-10-11-10s-14.45,5.45-18.72,12.97c1.14-6.56,1.72-13.32,1.72-20.17,0-13-4-28.6-11.4-37.4C147.44,18,129.24,0,98.04,0,47.64,0,12.04,46.8,12.04,93.8c0,42.2,27,72.2,68,72.2,37.53,0,62.11-21.24,73.42-50.24-2.43,16.08-3.61,37.66-3.61,50.24,0,18.8,8,25.6,19.2,25.6,13,0,23.4-6.6,23.4-14.8,0-2.2-4.2-10.4-4.2-30.8,3.2,2,7.6,3.2,12.4,3.2,12.5,0,23.04-7.82,29.34-18.84,2.68,10.93,11.06,20.04,24.06,20.04,7.8,0,14.8-2.6,19.6-9.2,3.2,5.8,8.4,8.6,15.8,8.6,9.76,0,17-6.26,22.26-14.45,4.36,9.88,11.79,15.06,21.74,15.06,31.2,0,38.2-46.4,38.2-52.4,0-3-1.8-4.8-4-4.8Zm-277.4,17.4c-11.2,0-19.4-9.4-19.4-27.8,0-25.8,14.4-49.4,28-49.4,5.2,0,8.4,4.4,8.4,9,0,10.6-4.6,13.8-4.6,17.4,0,4.4,4,10.6,14.8,12-.6,23.2-13,38.8-27.2,38.8Zm109,4.2c-2.2,0-4.8-1.2-6.4-3.2,2.4-6.6,6.4-11,10.6-11,3,0,4.4,2.4,4.4,5,0,4.8-4.4,9.2-8.6,9.2Zm68.8,0c-4.4,0-6.2-3.2-6.2-6.8,0-4.6,3-9.6,8-9.6,5.6,0,6.4,5,6.4,6.8,0,5-2.8,9.6-8.2,9.6Zm75.6-64.6c1.6-5,3.4-7,4.8-7,1.8,0,2.6,2,2.6,4.8,0,7.6-6.2,22.8-12.2,31.6.6-10.4,2.2-22,4.8-29.4Z"/>
  <path class="cls-2" d="m358.1,105.1c-3.6,0-5.2,2-7.2,4.4-3,3.6-7.6,9.8-14.4,9.8-2.6,0-4.4-1.6-5.4-4.2,18.4-18.2,33.2-51.8,33.2-72s-8.4-29.2-20.6-29.2c-32.17,0-44.64,65.34-45.89,101.51-2.07,1.76-4.28,2.89-6.71,2.89-3.4,0-5-2.4-5-6.6,0-3.6,1.2-7,1.2-9.6,0-3.6-3-6-7.2-6-2.6,0-5.8,1-8.2,2.6-4-2.8-9.6-4.6-15.6-4.6-11.54,0-23.23,6.44-30.25,17.37-2.04-10.86-8.97-18.77-21.35-18.77s-20.4,7.2-25.8,15.2c.2-1.2.2-2.2.2-3,0-5.6-4-10-11-10s-14.45,5.45-18.72,12.97c1.14-6.56,1.72-13.32,1.72-20.17,0-13-4-28.6-11.4-37.4-1.8-20.4-20-38.4-51.2-38.4C38.1,11.9,2.5,58.7,2.5,105.7c0,42.2,27,72.2,68,72.2,37.53,0,62.11-21.24,73.42-50.24-2.43,16.08-3.61,37.66-3.61,50.24,0,18.8,8,25.6,19.2,25.6,13,0,23.4-6.6,23.4-14.8,0-2.2-4.2-10.4-4.2-30.8,3.2,2,7.6,3.2,12.4,3.2,12.5,0,23.04-7.82,29.34-18.84,2.68,10.93,11.06,20.04,24.06,20.04,7.8,0,14.8-2.6,19.6-9.2,3.2,5.8,8.4,8.6,15.8,8.6,9.76,0,17-6.26,22.26-14.45,4.36,9.88,11.79,15.06,21.74,15.06,31.2,0,38.2-46.4,38.2-52.4,0-3-1.8-4.8-4-4.8Zm-277.4,17.4c-11.2,0-19.4-9.4-19.4-27.8,0-25.8,14.4-49.4,28-49.4,5.2,0,8.4,4.4,8.4,9,0,10.6-4.6,13.8-4.6,17.4,0,4.4,4,10.6,14.8,12-.6,23.2-13,38.8-27.2,38.8Zm109,4.2c-2.2,0-4.8-1.2-6.4-3.2,2.4-6.6,6.4-11,10.6-11,3,0,4.4,2.4,4.4,5,0,4.8-4.4,9.2-8.6,9.2Zm68.8,0c-4.4,0-6.2-3.2-6.2-6.8,0-4.6,3-9.6,8-9.6,5.6,0,6.4,5,6.4,6.8,0,5-2.8,9.6-8.2,9.6Zm75.6-64.6c1.6-5,3.4-7,4.8-7,1.8,0,2.6,2,2.6,4.8,0,7.6-6.2,22.8-12.2,31.6.6-10.4,2.2-22,4.8-29.4Z"/>
</svg>